# xmcd
#
# Track frame offsets:
#	225
#	12537
#	27625
#	44441
#	56851
#	88672
#	104467
#	121182
#	132233
#	144914
#	162757
#	172959
#	189869
#	198831
#	216681
#	233883
#
# Disc length: 3326 seconds
#
# Revision: 1
# Processed by: cddbd v1.5.2PL0 Copyright (c) Steve Scherf et al.
# Submitted via: audiograbber 1.83.01
#
DISCID=e40cfb10
DTITLE=DIGGER REVELL - VOLUME TWO
DYEAR=2012
DGENRE=Country
TTITLE0=The Mountain Of love
TTITLE1=The Gambler
TTITLE2=Funny How Time Slips Away
TTITLE3=Castles In The Air
TTITLE4=Al Jolson  Medley
TTITLE5=Old Hippie
TTITLE6=The Twelth Of Never
TTITLE7=Blue Eyes Crying In The Rain
TTITLE8=Good Hearted Woman
TTITLE9=Over The Rainbow
TTITLE10=The Worlds Gone Crazy Cotillion
TTITLE11=Seven Spanish Angels
TTITLE12=I Fought The Law
TTITLE13=Wonderful World
TTITLE14=Old Time Rock and Roll
TTITLE15=Always On My Mind
EXTD=
EXTT0=
EXTT1=
EXTT2=
EXTT3=
EXTT4=
EXTT5=
EXTT6=
EXTT7=
EXTT8=
EXTT9=
EXTT10=
EXTT11=
EXTT12=
EXTT13=
EXTT14=
EXTT15=
PLAYORDER=
